<svg xmlns="http://www.w3.org/2000/svg" viewBox="0 0 512 512" width="512" height="512">
  <!-- Fond noir -->
  <rect width="512" height="512" fill="#000000" rx="64"/>
  
  <!-- Logo chariot avec code-barres en blanc -->
  <g fill="#ffffff" stroke="#ffffff" stroke-width="3" stroke-linecap="round" stroke-linejoin="round">
    <!-- Corps du chariot (rectangle avec coins arrondis) -->
    <rect x="120" y="220" width="272" height="180" rx="16" fill="none" stroke-width="10"/>
    
    <!-- Poignée du chariot (arc au-dessus) -->
    <path d="M 120 220 Q 120 160 180 160 L 332 160 Q 392 160 392 220" fill="none" stroke-width="10"/>
    
    <!-- Roues -->
    <circle cx="180" cy="430" r="35" fill="none" stroke-width="10"/>
    <circle cx="332" cy="430" r="35" fill="none" stroke-width="10"/>
    
    <!-- Code-barres stylisé dans le chariot (avec crochets d'angle) -->
    <g transform="translate(160, 280)">
      <!-- Crochet gauche -->
      <path d="M 0 20 L 15 20 L 15 60 L 0 60" fill="none" stroke-width="6"/>
      <!-- Lignes du code-barres -->
      <rect x="25" y="20" width="5" height="60" fill="#ffffff"/>
      <rect x="35" y="20" width="3" height="60" fill="#ffffff"/>
      <rect x="43" y="20" width="4" height="60" fill="#ffffff"/>
      <rect x="52" y="20" width="2" height="60" fill="#ffffff"/>
      <rect x="58" y="20" width="5" height="60" fill="#ffffff"/>
      <rect x="68" y="20" width="3" height="60" fill="#ffffff"/>
      <rect x="76" y="20" width="4" height="60" fill="#ffffff"/>
      <rect x="85" y="20" width="2" height="60" fill="#ffffff"/>
      <rect x="92" y="20" width="5" height="60" fill="#ffffff"/>
      <rect x="102" y="20" width="3" height="60" fill="#ffffff"/>
      <rect x="110" y="20" width="4" height="60" fill="#ffffff"/>
      <rect x="119" y="20" width="2" height="60" fill="#ffffff"/>
      <rect x="126" y="20" width="5" height="60" fill="#ffffff"/>
      <rect x="136" y="20" width="3" height="60" fill="#ffffff"/>
      <rect x="144" y="20" width="4" height="60" fill="#ffffff"/>
      <rect x="153" y="20" width="2" height="60" fill="#ffffff"/>
      <rect x="160" y="20" width="5" height="60" fill="#ffffff"/>
      <!-- Crochet droit -->
      <path d="M 172 20 L 187 20 L 187 60 L 172 60" fill="none" stroke-width="6"/>
    </g>
  </g>
</svg>
